<?xml version="1.0" encoding="UTF-8" standalone="no"?>
<!-- Created with Inkscape (http://www.inkscape.org/) -->

<svg
   xmlns:osb="http://www.openswatchbook.org/uri/2009/osb"
   xmlns:dc="http://purl.org/dc/elements/1.1/"
   xmlns:cc="http://creativecommons.org/ns#"
   xmlns:rdf="http://www.w3.org/1999/02/22-rdf-syntax-ns#"
   xmlns:svg="http://www.w3.org/2000/svg"
   xmlns="http://www.w3.org/2000/svg"
   xmlns:xlink="http://www.w3.org/1999/xlink"
   xmlns:sodipodi="http://sodipodi.sourceforge.net/DTD/sodipodi-0.dtd"
   xmlns:inkscape="http://www.inkscape.org/namespaces/inkscape"
   width="210mm"
   height="297mm"
   viewBox="0 0 744.09448819 1052.3622047"
   id="svg2"
   version="1.1"
   inkscape:version="0.91 r13725"
   sodipodi:docname="inkscape3.svg">
  <defs
     id="defs4">
    <linearGradient
       inkscape:collect="always"
       id="linearGradient4660"
       osb:paint="gradient">
      <stop
         style="stop-color:#000000;stop-opacity:1;"
         offset="0"
         id="stop4662" />
      <stop
         style="stop-color:#000000;stop-opacity:0;"
         offset="1"
         id="stop4664" />
    </linearGradient>
    <linearGradient
       id="linearGradient4649"
       osb:paint="solid">
      <stop
         style="stop-color:#000000;stop-opacity:1;"
         offset="0"
         id="stop4651" />
    </linearGradient>
    <linearGradient
       inkscape:collect="always"
       id="linearGradient3754">
      <stop
         style="stop-color:#ffd42a;stop-opacity:1;"
         offset="0"
         id="stop3756" />
      <stop
         style="stop-color:#ffd42a;stop-opacity:0;"
         offset="1"
         id="stop3758" />
    </linearGradient>
    <linearGradient
       inkscape:collect="always"
       id="linearGradient3746">
      <stop
         style="stop-color:#5599ff;stop-opacity:1;"
         offset="0"
         id="stop3748" />
      <stop
         style="stop-color:#5599ff;stop-opacity:0;"
         offset="1"
         id="stop3750" />
    </linearGradient>
    <linearGradient
       inkscape:collect="always"
       id="linearGradient3730">
      <stop
         style="stop-color:#800080;stop-opacity:1;"
         offset="0"
         id="stop3732" />
      <stop
         style="stop-color:#800080;stop-opacity:0;"
         offset="1"
         id="stop3734" />
    </linearGradient>
    <linearGradient
       inkscape:collect="always"
       id="linearGradient3676">
      <stop
         style="stop-color:#66ff00;stop-opacity:1;"
         offset="0"
         id="stop3678" />
      <stop
         style="stop-color:#66ff00;stop-opacity:0;"
         offset="1"
         id="stop3680" />
    </linearGradient>
    <linearGradient
       inkscape:collect="always"
       id="linearGradient3384">
      <stop
         id="stop3388"
         offset="0"
         style="stop-color:#ffdd55;stop-opacity:1" />
      <stop
         id="stop3386"
         offset="1"
         style="stop-color:#ff6600;stop-opacity:1;" />
    </linearGradient>
    <radialGradient
       inkscape:collect="always"
       xlink:href="#linearGradient3384"
       id="radialGradient3390"
       cx="388.57144"
       cy="362.91641"
       fx="388.57144"
       fy="362.91641"
       r="315.16797"
       gradientTransform="matrix(-0.0132809,-0.13805978,0.117971,-0.01134842,22.343844,109.72087)"
       gradientUnits="userSpaceOnUse" />
    <linearGradient
       inkscape:collect="always"
       xlink:href="#linearGradient3676"
       id="linearGradient3682"
       x1="331"
       y1="380.11221"
       x2="623.75"
       y2="385.86221"
       gradientUnits="userSpaceOnUse"
       gradientTransform="matrix(0.33604176,-0.30294644,0.30294644,0.33604176,-70.53887,47.580652)" />
    <linearGradient
       inkscape:collect="always"
       xlink:href="#linearGradient3730"
       id="linearGradient3736"
       x1="278.5"
       y1="614.36218"
       x2="267.5"
       y2="411.86221"
       gradientUnits="userSpaceOnUse"
       gradientTransform="matrix(0.33604176,-0.30294644,0.30294644,0.33604176,-70.53887,47.580652)" />
    <linearGradient
       inkscape:collect="always"
       xlink:href="#linearGradient3746"
       id="linearGradient3752"
       x1="526"
       y1="634.36218"
       x2="125"
       y2="616.86218"
       gradientUnits="userSpaceOnUse"
       gradientTransform="matrix(0.33604176,-0.30294644,0.30294644,0.33604176,-70.53887,47.580652)" />
    <linearGradient
       inkscape:collect="always"
       xlink:href="#linearGradient3754"
       id="linearGradient3760"
       x1="532"
       y1="415.86221"
       x2="543.5"
       y2="694.36218"
       gradientUnits="userSpaceOnUse"
       gradientTransform="matrix(0.33604176,-0.30294644,0.30294644,0.33604176,-70.53887,47.580652)" />
  </defs>
  <sodipodi:namedview
     id="base"
     pagecolor="#ffffff"
     bordercolor="#666666"
     borderopacity="1.0"
     inkscape:pageopacity="0.0"
     inkscape:pageshadow="2"
     inkscape:zoom="1.4142136"
     inkscape:cx="237.02686"
     inkscape:cy="765.50686"
     inkscape:document-units="px"
     inkscape:current-layer="layer1"
     showgrid="false"
     inkscape:window-width="1920"
     inkscape:window-height="1017"
     inkscape:window-x="-8"
     inkscape:window-y="-8"
     inkscape:window-maximized="1" />
  <metadata
     id="metadata7">
    <rdf:RDF>
      <cc:Work
         rdf:about="">
        <dc:format>image/svg+xml</dc:format>
        <dc:type
           rdf:resource="http://purl.org/dc/dcmitype/StillImage" />
      </cc:Work>
    </rdf:RDF>
  </metadata>
  <g
     inkscape:label="Layer 1"
     inkscape:groupmode="layer"
     id="layer1">
    <path
       style="fill:url(#radialGradient3390);fill-opacity:1"
       d="M 60.122489,9.7463757 A 47.31077,45.491126 0 0 0 15.687853,39.784236 c 3.047943,-0.0649 7.292784,-0.0402 13.221089,-0.0402 25.582157,0 67.915887,3.77958 75.742588,6.85418 0.73358,0.28818 1.41639,0.55934 2.07344,0.82211 A 47.31077,45.491126 0 0 0 60.122489,9.7463457 Z m 9.88811,37.9847603 c -12.65978,-0.0629 -37.634412,2.54319 -43.683191,3.64493 -6.363725,1.1591 -10.624645,2.03137 -13.447725,2.55397 a 47.31077,45.491126 0 0 0 -0.06802,1.30763 47.31077,45.491126 0 0 0 4.876329,19.9879 c 6.128715,-6.23608 16.318072,-12.12904 29.669607,-16.03512 16.51656,-4.83202 41.10605,-9.7147 54.124551,-10.26251 0.0943,-0.004 0.18361,-0.0103 0.27501,-0.0155 -6.817681,-1.05559 -19.374491,-0.94053 -30.560901,-1.1669 -0.3817,-0.008 -0.77728,-0.0123 -1.18566,-0.0144 z m 37.135101,2.96737 c -0.0626,0.006 -0.1197,0.0101 -0.18442,0.0167 -6.27273,0.64201 -21.082871,6.296 -32.838111,9.73507 -12.00398,3.51184 -27.09125,13.06181 -36.880021,20.71941 -3.618119,2.8304 -6.475453,5.66854 -8.694828,7.87331 a 47.31077,45.491126 0 0 0 31.574169,11.685664 47.31077,45.491126 0 0 0 47.310821,-45.491004 47.31077,45.491126 0 0 0 -0.28761,-4.53916 z"
       id="path3336"
       inkscape:connector-curvature="0" />
    <path
       style="fill:url(#linearGradient3682);fill-opacity:1"
       d="m 162.97858,35.604532 c -19.4772,17.60272 -21.73669,47.38365 -5.13816,67.723408 l 13.91845,-12.601218 -0.6408,-0.71081 c -0.79851,-0.78526 -1.48097,-1.66639 -2.24778,-2.50654 -10.99448,-12.19608 -10.0205,-30.99572 2.17544,-41.99035 10.68804,-9.63559 26.44431,-10.07285 37.57819,-1.82659 a 0.11045862,0.0256264 32.683682 0 0 0.009,0.005 l 0.007,0.005 a 0.11045862,0.0256264 32.683682 0 0 0.001,10e-4 c 9e-4,9.1e-4 0.002,10e-4 0.003,0.002 a 0.11045862,0.0256264 32.683682 0 0 0.0151,0.0102 0.11045862,0.0256264 32.683682 0 0 0.0849,0.04 l 0.51125,0.36122 c 1.90804,1.37933 3.99525,1.76201 6.22957,2.16968 3.06397,0.55603 5.90172,-0.17898 7.87732,-2.04032 l -0.33538,0.30236 c 0.007,-0.005 0.0116,-0.005 0.0138,-4.6e-4 l 7.85563,-7.08197 c -18.52591,-18.62029 -48.3995,-19.43964 -67.91781,-1.86261 z m 12.66994,15.03198 a 13.74282,13.74282 0 0 0 -1.00528,19.40926 13.74282,13.74282 0 0 0 19.40927,1.00528 13.74282,13.74282 0 0 0 1.00527,-19.40927 13.74282,13.74282 0 0 0 -19.40926,-1.00527 z m 46.53208,-5.32405 c 9e-4,-9.1e-4 0.002,-9.1e-4 0.003,-0.002 l -4.5e-4,-4.5e-4 -0.003,0.002 z m -4.14757,28.94277 a 0.11310963,0.22621926 47.964889 0 0 -0.0923,0.23548 0.11310963,0.22621926 47.964889 0 0 0.24376,-0.0675 0.11310963,0.22621926 47.964889 0 0 0.0923,-0.23549 0.11310963,0.22621926 47.964889 0 0 -0.24376,0.0675 z"
       id="path3407"
       inkscape:connector-curvature="0" />
    <path
       inkscape:connector-curvature="0"
       style="fill:url(#linearGradient3760);fill-opacity:1"
       d="M 286.69316,28.476862 C 269.09044,8.9996621 239.30951,6.7401721 218.96975,23.338712 l 12.60122,13.91844 0.71081,-0.6408 c 0.78527,-0.79851 1.6664,-1.48096 2.50653,-2.2478 12.19609,-10.99447 30.99572,-10.0205 41.99036,2.17545 9.63558,10.68804 10.07284,26.44431 1.82659,37.5782 a 0.0256264,0.11045862 32.683682 0 0 -0.005,0.008 l -0.005,0.007 a 0.0256264,0.11045862 32.683682 0 0 -10e-4,0.001 c -9.1e-4,9e-4 -0.001,0.002 -0.002,0.003 a 0.0256264,0.11045862 32.683682 0 0 -0.0101,0.0152 0.0256264,0.11045862 32.683682 0 0 -0.04,0.0849 l -0.36122,0.51124 c -1.37933,1.90805 -1.76201,3.99526 -2.16968,6.22958 -0.55602,3.06397 0.17898,5.90172 2.04032,7.87732 l -0.30236,-0.33538 c 0.005,0.007 0.005,0.0114 4.6e-4,0.0138 l 7.08196,7.85564 c 18.62036,-18.5258 19.4397,-48.3994 1.86267,-67.9177 z m -15.03198,12.66994 a 13.74282,13.74282 0 0 0 -19.40926,-1.00527 13.74282,13.74282 0 0 0 -1.00528,19.40926 13.74282,13.74282 0 0 0 19.40927,1.00528 13.74282,13.74282 0 0 0 1.00527,-19.40927 z m 5.32405,46.53208 c 9.1e-4,9e-4 10e-4,0.002 0.002,0.003 l 4.5e-4,-4.6e-4 -0.002,-0.003 z m -28.94277,-4.14757 a 0.22621926,0.11310963 47.964889 0 0 -0.23548,-0.0923 0.22621926,0.11310963 47.964889 0 0 0.0675,0.24376 0.22621926,0.11310963 47.964889 0 0 0.23549,0.0923 0.22621926,0.11310963 47.964889 0 0 -0.0675,-0.24376 z"
       id="path3407-6" />
    <path
       inkscape:connector-curvature="0"
       style="fill:url(#linearGradient3752);fill-opacity:1"
       d="m 294.09451,152.01208 c 19.47721,-17.60272 21.7367,-47.38365 5.13816,-67.723408 l -13.91844,12.60122 0.6408,0.71081 c 0.79851,0.78527 1.48096,1.6664 2.24779,2.506528 10.99448,12.19608 10.0205,30.99572 -2.17544,41.99036 -10.68804,9.63558 -26.44431,10.07284 -37.5782,1.82658 a 0.11045862,0.0256264 32.683682 0 0 -0.009,-0.005 l -0.007,-0.005 a 0.11045862,0.0256264 32.683682 0 0 -0.001,-0.001 c -9.1e-4,-9e-4 -0.002,-0.001 -0.003,-0.002 a 0.11045862,0.0256264 32.683682 0 0 -0.0152,-0.0101 0.11045862,0.0256264 32.683682 0 0 -0.0849,-0.04 l -0.51125,-0.36121 c -1.90805,-1.37933 -3.99525,-1.76201 -6.22958,-2.16968 -3.06397,-0.55603 -5.90171,0.17897 -7.87732,2.04032 l 0.33538,-0.30236 c -0.007,0.005 -0.0114,0.005 -0.0138,4.6e-4 l -7.85564,7.08196 c 18.52579,18.62035 48.3994,19.4397 67.9177,1.86267 z m -12.66993,-15.03199 a 13.74282,13.74282 0 0 0 1.00526,-19.40926 13.74282,13.74282 0 0 0 -19.40926,-1.00527 13.74282,13.74282 0 0 0 -1.00527,19.40927 13.74282,13.74282 0 0 0 19.40927,1.00526 z m -46.53208,5.32406 c -9.1e-4,9e-4 -0.002,0.001 -0.003,0.002 l 4.5e-4,4.5e-4 0.003,-0.002 z m 4.14757,-28.94277 a 0.11310963,0.22621926 47.964889 0 0 0.0923,-0.23549 0.11310963,0.22621926 47.964889 0 0 -0.24376,0.0675 0.11310963,0.22621926 47.964889 0 0 -0.0923,0.23548 0.11310963,0.22621926 47.964889 0 0 0.24376,-0.0675 z"
       id="path3407-5" />
    <path
       inkscape:connector-curvature="0"
       style="fill:url(#linearGradient3736);fill-opacity:1"
       d="m 169.88722,160.01932 c 17.60271,19.47721 47.38365,21.7367 67.7234,5.13816 l -12.60121,-13.91844 -0.71081,0.6408 c -0.78527,0.79851 -1.6664,1.48096 -2.50653,2.2478 -12.19608,10.99447 -30.99573,10.0205 -41.99036,-2.17545 -9.63558,-10.68804 -10.07284,-26.44431 -1.82659,-37.57819 a 0.0256264,0.11045862 32.683682 0 0 0.005,-0.009 l 0.005,-0.007 a 0.0256264,0.11045862 32.683682 0 0 0.001,-0.001 c 9e-4,-9e-4 0.001,-0.002 0.002,-0.003 a 0.0256264,0.11045862 32.683682 0 0 0.0101,-0.0152 0.0256264,0.11045862 32.683682 0 0 0.04,-0.0849 l 0.36122,-0.51124 c 1.37933,-1.90805 1.76201,-3.99526 2.16968,-6.22958 0.55603,-3.06397 -0.17898,-5.90172 -2.04031,-7.877318 l 0.30235,0.33538 c -0.005,-0.007 -0.005,-0.0114 -4.6e-4,-0.0138 l -7.08196,-7.85564 C 153.12839,110.6275 152.30903,140.5011 169.88606,160.0194 Z m 15.03198,-12.66993 a 13.74282,13.74282 0 0 0 19.40926,1.00527 13.74282,13.74282 0 0 0 1.00528,-19.40927 13.74282,13.74282 0 0 0 -19.40927,-1.00527 13.74282,13.74282 0 0 0 -1.00527,19.40927 z m -5.32406,-46.53208 c -9e-4,-9.1e-4 -10e-4,-0.002 -0.002,-0.003 l -4.5e-4,4.5e-4 0.002,0.003 z m 28.94278,4.14757 a 0.22621926,0.11310963 47.964889 0 0 0.23548,0.0923 0.22621926,0.11310963 47.964889 0 0 -0.0675,-0.24376 0.22621926,0.11310963 47.964889 0 0 -0.23549,-0.0923 0.22621926,0.11310963 47.964889 0 0 0.0675,0.24376 z"
       id="path3407-1" />
    <path
       style="fill:#000000"
       d="m 376.99211,47.064207 a 11.34456,11.34456 0 0 0 -11.34441,11.34478 11.34456,11.34456 0 0 0 11.34441,11.34441 11.34456,11.34456 0 0 0 11.34442,-11.34441 11.34456,11.34456 0 0 0 -11.34442,-11.34478 z m 0.72285,23.59543 c -10.6022,-0.0144 -19.20668,13.87286 -19.22451,31.027553 l 38.41697,0.0523 c 0,-17.154723 -8.59027,-31.065483 -19.19246,-31.079903 z"
       id="path3767"
       inkscape:connector-curvature="0" />
    <path
       id="path4709"
       style="fill:none;fill-rule:evenodd;stroke:#000000;stroke-width:0.98283535;stroke-linecap:butt;stroke-linejoin:round;stroke-miterlimit:4;stroke-dasharray:none;stroke-opacity:1"
       d="m 425.98393,68.322056 22.06529,13.46504 0,0 21.28344,-13.63877 m -43.21842,-0.0869 43.17498,0 0,24.49768 -43.17498,0 z"
       inkscape:connector-curvature="0" />
    <path
       style="fill:#000000;stroke-width:4;stroke-linecap:round;stroke-linejoin:round;stroke-miterlimit:4;stroke-dasharray:none"
       d="m 530.72552,44.911275 -16.73075,17.680652 -16.73075,17.680657 6.36667,0.02886 0,29.840986 52.44944,0 0,-29.600752 7.26139,0.03312 -11.37511,-12.437915 0,-14.557598 -7.45579,0 0,6.404867 -13.7851,-15.072866 z"
       id="rect4721"
       inkscape:connector-curvature="0" />
  </g>
</svg>
